<svg width="1840" height="1380" viewBox="0 0 1840 1380" fill="none" xmlns="http://www.w3.org/2000/svg">
<path d="M1306.67 951.333C1305.87 953.733 1304.8 956 1304 957.733C1303.07 959.333 1302.4 960.4 1302.4 960.4C1298.53 967.067 1296 971.2 1292.4 973.467C1293.07 972.8 1293.6 972 1294 971.333C1300.8 960 1290.4 942.133 1269.33 907.067C1251.33 877.2 1233.87 854.133 1221.2 838.667C1231.6 822.267 1244.8 798.133 1254.67 767.067C1256.13 762.533 1280.53 681.333 1257.33 591.2C1230.67 487.6 1147.73 397.2 1044.53 356.8C902.801 301.067 744.801 348 646.134 445.6C641.867 449.867 628.667 463.2 612.801 484.267C637.067 445.333 661.067 420.933 667.201 414.933C765.867 317.333 923.867 270.4 1065.33 325.733C1072.67 328.533 1232.67 394.4 1278.13 560.133C1306.4 663.333 1276.4 754.133 1272 766.8C1263.07 792.533 1252.53 812.933 1244 827.333C1261.87 855.867 1275.73 877.2 1284.8 891.2C1285.07 891.2 1312.4 932.933 1306.67 951.333Z" fill="#FF7300"/>
<path d="M1269.2 906.8C1251.2 876.933 1233.73 853.867 1221.07 838.4C1231.47 822 1244.67 797.867 1254.53 766.8C1256 762.267 1280.4 681.067 1257.2 590.933C1230.53 487.333 1147.6 396.933 1044.4 356.533C902.801 301.067 744.801 348 646.134 445.6C641.868 449.867 628.668 463.2 612.801 484.267C574.001 535.733 518.801 633.6 535.468 759.067C555.868 910.4 671.068 1030.67 804.001 1065.87C838.268 1074.93 945.068 1097.33 1050 1040.27C1094 1016.4 1123.47 986.133 1141.07 965.067C1156.8 968.8 1180.67 973.733 1210.4 977.067C1253.6 981.733 1282.27 984.8 1292.4 973.467C1293.07 972.8 1293.6 972 1294 971.333C1300.67 959.733 1290.27 942 1269.2 906.8Z" fill="#FFF200"/>
<path d="M646.8 757.067C645.333 790.534 672 818.8 702.933 822.267C730.933 825.467 754.667 807.6 765.867 788.534C768.8 783.6 778.667 766 773.867 744.667C767.867 718 741.867 697.734 714 696.8C681.867 695.734 648.4 720.934 646.8 757.067Z" fill="white"/>
<path d="M812.667 757.067C811.2 790.534 837.867 818.8 868.8 822.267C896.8 825.467 920.534 807.6 931.734 788.534C934.667 783.6 944.534 766 939.734 744.667C933.734 718 907.734 697.734 879.867 696.8C847.6 695.734 814.267 720.934 812.667 757.067Z" fill="white"/>
<path d="M978.534 757.067C977.068 790.534 1003.73 818.8 1034.67 822.267C1062.67 825.467 1086.4 807.6 1097.6 788.534C1100.53 783.6 1110.4 766 1105.6 744.667C1099.6 718 1073.6 697.734 1045.73 696.8C1013.47 695.734 980.001 720.934 978.534 757.067Z" fill="white"/>
</svg>
